<?xml version="1.0" encoding="UTF-8"?>
<mxfile host="app.diagrams.net" agent="Mozilla/5.0 (Windows NT 10.0; Win64; x64) AppleWebKit/537.36 (KHTML, like Gecko) Chrome/129.0.0.0 Safari/537.36" version="24.7.17">
  <diagram name="Page-1" id="sKVAbSH9CPIeAXGi9QWa">
    <mxGraphModel dx="1278" dy="510" grid="1" gridSize="10" guides="1" tooltips="1" connect="1" arrows="1" fold="1" page="1" pageScale="1" pageWidth="1169" pageHeight="827" math="0" shadow="0">
      <root>
        <mxCell id="0" />
        <mxCell id="1" parent="0" />
        <mxCell id="Q5zvqMtaJudgByWmIzp0-1" value="User" style="swimlane;fontStyle=1;align=center;verticalAlign=top;childLayout=stackLayout;horizontal=1;startSize=26.857142857142858;horizontalStack=0;resizeParent=1;resizeParentMax=0;resizeLast=0;collapsible=0;marginBottom=0;" parent="1" vertex="1">
          <mxGeometry x="24" y="20" width="188" height="250.85714285714286" as="geometry" />
        </mxCell>
        <mxCell id="Q5zvqMtaJudgByWmIzp0-2" value="-id: int" style="text;strokeColor=none;fillColor=none;align=left;verticalAlign=top;spacingLeft=4;spacingRight=4;overflow=hidden;rotatable=0;points=[[0,0.5],[1,0.5]];portConstraint=eastwest;" parent="Q5zvqMtaJudgByWmIzp0-1" vertex="1">
          <mxGeometry y="26.857142857142858" width="188" height="27" as="geometry" />
        </mxCell>
        <mxCell id="Q5zvqMtaJudgByWmIzp0-3" value="-email : string" style="text;strokeColor=none;fillColor=none;align=left;verticalAlign=top;spacingLeft=4;spacingRight=4;overflow=hidden;rotatable=0;points=[[0,0.5],[1,0.5]];portConstraint=eastwest;" parent="Q5zvqMtaJudgByWmIzp0-1" vertex="1">
          <mxGeometry y="53.85714285714286" width="188" height="27" as="geometry" />
        </mxCell>
        <mxCell id="Q5zvqMtaJudgByWmIzp0-4" value="-password: string" style="text;strokeColor=none;fillColor=none;align=left;verticalAlign=top;spacingLeft=4;spacingRight=4;overflow=hidden;rotatable=0;points=[[0,0.5],[1,0.5]];portConstraint=eastwest;" parent="Q5zvqMtaJudgByWmIzp0-1" vertex="1">
          <mxGeometry y="80.85714285714286" width="188" height="27" as="geometry" />
        </mxCell>
        <mxCell id="Q5zvqMtaJudgByWmIzp0-5" value="-role: string" style="text;strokeColor=none;fillColor=none;align=left;verticalAlign=top;spacingLeft=4;spacingRight=4;overflow=hidden;rotatable=0;points=[[0,0.5],[1,0.5]];portConstraint=eastwest;" parent="Q5zvqMtaJudgByWmIzp0-1" vertex="1">
          <mxGeometry y="107.85714285714286" width="188" height="27" as="geometry" />
        </mxCell>
        <mxCell id="Q5zvqMtaJudgByWmIzp0-6" style="line;strokeWidth=1;fillColor=none;align=left;verticalAlign=middle;spacingTop=-1;spacingLeft=3;spacingRight=3;rotatable=0;labelPosition=right;points=[];portConstraint=eastwest;strokeColor=inherit;" parent="Q5zvqMtaJudgByWmIzp0-1" vertex="1">
          <mxGeometry y="134.85714285714286" width="188" height="8" as="geometry" />
        </mxCell>
        <mxCell id="Q5zvqMtaJudgByWmIzp0-7" value="+createPreReservation()" style="text;strokeColor=none;fillColor=none;align=left;verticalAlign=top;spacingLeft=4;spacingRight=4;overflow=hidden;rotatable=0;points=[[0,0.5],[1,0.5]];portConstraint=eastwest;" parent="Q5zvqMtaJudgByWmIzp0-1" vertex="1">
          <mxGeometry y="142.85714285714286" width="188" height="27" as="geometry" />
        </mxCell>
        <mxCell id="iOH6iioEirqTic2LtI99-32" value="+modifierReservation()" style="text;strokeColor=none;fillColor=none;align=left;verticalAlign=top;spacingLeft=4;spacingRight=4;overflow=hidden;rotatable=0;points=[[0,0.5],[1,0.5]];portConstraint=eastwest;" parent="Q5zvqMtaJudgByWmIzp0-1" vertex="1">
          <mxGeometry y="169.85714285714286" width="188" height="27" as="geometry" />
        </mxCell>
        <mxCell id="iOH6iioEirqTic2LtI99-33" value="+annulerReservation()" style="text;strokeColor=none;fillColor=none;align=left;verticalAlign=top;spacingLeft=4;spacingRight=4;overflow=hidden;rotatable=0;points=[[0,0.5],[1,0.5]];portConstraint=eastwest;" parent="Q5zvqMtaJudgByWmIzp0-1" vertex="1">
          <mxGeometry y="196.85714285714286" width="188" height="27" as="geometry" />
        </mxCell>
        <mxCell id="iOH6iioEirqTic2LtI99-29" value="+viewHalls()" style="text;strokeColor=none;fillColor=none;align=left;verticalAlign=top;spacingLeft=4;spacingRight=4;overflow=hidden;rotatable=0;points=[[0,0.5],[1,0.5]];portConstraint=eastwest;" parent="Q5zvqMtaJudgByWmIzp0-1" vertex="1">
          <mxGeometry y="223.85714285714286" width="188" height="27" as="geometry" />
        </mxCell>
        <mxCell id="Q5zvqMtaJudgByWmIzp0-9" value="Administrator" style="swimlane;fontStyle=1;align=center;verticalAlign=top;childLayout=stackLayout;horizontal=1;startSize=25.818181818181817;horizontalStack=0;resizeParent=1;resizeParentMax=0;resizeLast=0;collapsible=0;marginBottom=0;" parent="1" vertex="1">
          <mxGeometry x="20" y="390" width="176" height="423.8181818181818" as="geometry" />
        </mxCell>
        <mxCell id="Q5zvqMtaJudgByWmIzp0-10" style="line;strokeWidth=1;fillColor=none;align=left;verticalAlign=middle;spacingTop=-1;spacingLeft=3;spacingRight=3;rotatable=0;labelPosition=right;points=[];portConstraint=eastwest;strokeColor=inherit;" parent="Q5zvqMtaJudgByWmIzp0-9" vertex="1">
          <mxGeometry y="25.818181818181817" width="176" height="8" as="geometry" />
        </mxCell>
        <mxCell id="iOH6iioEirqTic2LtI99-44" value="+notificationPreReservation()" style="text;strokeColor=none;fillColor=none;align=left;verticalAlign=top;spacingLeft=4;spacingRight=4;overflow=hidden;rotatable=0;points=[[0,0.5],[1,0.5]];portConstraint=eastwest;" parent="Q5zvqMtaJudgByWmIzp0-9" vertex="1">
          <mxGeometry y="33.81818181818181" width="176" height="26" as="geometry" />
        </mxCell>
        <mxCell id="Q5zvqMtaJudgByWmIzp0-11" value="+validateReservation()" style="text;strokeColor=none;fillColor=none;align=left;verticalAlign=top;spacingLeft=4;spacingRight=4;overflow=hidden;rotatable=0;points=[[0,0.5],[1,0.5]];portConstraint=eastwest;" parent="Q5zvqMtaJudgByWmIzp0-9" vertex="1">
          <mxGeometry y="59.81818181818181" width="176" height="26" as="geometry" />
        </mxCell>
        <mxCell id="iOH6iioEirqTic2LtI99-37" value="+annulerReservation()" style="text;strokeColor=none;fillColor=none;align=left;verticalAlign=top;spacingLeft=4;spacingRight=4;overflow=hidden;rotatable=0;points=[[0,0.5],[1,0.5]];portConstraint=eastwest;" parent="Q5zvqMtaJudgByWmIzp0-9" vertex="1">
          <mxGeometry y="85.81818181818181" width="176" height="26" as="geometry" />
        </mxCell>
        <mxCell id="Q5zvqMtaJudgByWmIzp0-12" value="+addHall()" style="text;strokeColor=none;fillColor=none;align=left;verticalAlign=top;spacingLeft=4;spacingRight=4;overflow=hidden;rotatable=0;points=[[0,0.5],[1,0.5]];portConstraint=eastwest;" parent="Q5zvqMtaJudgByWmIzp0-9" vertex="1">
          <mxGeometry y="111.81818181818181" width="176" height="26" as="geometry" />
        </mxCell>
        <mxCell id="iOH6iioEirqTic2LtI99-35" value="+editHall()" style="text;strokeColor=none;fillColor=none;align=left;verticalAlign=top;spacingLeft=4;spacingRight=4;overflow=hidden;rotatable=0;points=[[0,0.5],[1,0.5]];portConstraint=eastwest;" parent="Q5zvqMtaJudgByWmIzp0-9" vertex="1">
          <mxGeometry y="137.8181818181818" width="176" height="26" as="geometry" />
        </mxCell>
        <mxCell id="iOH6iioEirqTic2LtI99-36" value="+deleteHall()" style="text;strokeColor=none;fillColor=none;align=left;verticalAlign=top;spacingLeft=4;spacingRight=4;overflow=hidden;rotatable=0;points=[[0,0.5],[1,0.5]];portConstraint=eastwest;" parent="Q5zvqMtaJudgByWmIzp0-9" vertex="1">
          <mxGeometry y="163.8181818181818" width="176" height="26" as="geometry" />
        </mxCell>
        <mxCell id="Q5zvqMtaJudgByWmIzp0-13" value="+addUsers()" style="text;strokeColor=none;fillColor=none;align=left;verticalAlign=top;spacingLeft=4;spacingRight=4;overflow=hidden;rotatable=0;points=[[0,0.5],[1,0.5]];portConstraint=eastwest;" parent="Q5zvqMtaJudgByWmIzp0-9" vertex="1">
          <mxGeometry y="189.8181818181818" width="176" height="26" as="geometry" />
        </mxCell>
        <mxCell id="iOH6iioEirqTic2LtI99-40" value="+editUsers()" style="text;strokeColor=none;fillColor=none;align=left;verticalAlign=top;spacingLeft=4;spacingRight=4;overflow=hidden;rotatable=0;points=[[0,0.5],[1,0.5]];portConstraint=eastwest;" parent="Q5zvqMtaJudgByWmIzp0-9" vertex="1">
          <mxGeometry y="215.8181818181818" width="176" height="26" as="geometry" />
        </mxCell>
        <mxCell id="iOH6iioEirqTic2LtI99-41" value="+deleteUsers()" style="text;strokeColor=none;fillColor=none;align=left;verticalAlign=top;spacingLeft=4;spacingRight=4;overflow=hidden;rotatable=0;points=[[0,0.5],[1,0.5]];portConstraint=eastwest;" parent="Q5zvqMtaJudgByWmIzp0-9" vertex="1">
          <mxGeometry y="241.8181818181818" width="176" height="26" as="geometry" />
        </mxCell>
        <mxCell id="iOH6iioEirqTic2LtI99-42" value="+addErgonomy()" style="text;strokeColor=none;fillColor=none;align=left;verticalAlign=top;spacingLeft=4;spacingRight=4;overflow=hidden;rotatable=0;points=[[0,0.5],[1,0.5]];portConstraint=eastwest;" parent="Q5zvqMtaJudgByWmIzp0-9" vertex="1">
          <mxGeometry y="267.8181818181818" width="176" height="26" as="geometry" />
        </mxCell>
        <mxCell id="iOH6iioEirqTic2LtI99-43" value="+editErgonomy()" style="text;strokeColor=none;fillColor=none;align=left;verticalAlign=top;spacingLeft=4;spacingRight=4;overflow=hidden;rotatable=0;points=[[0,0.5],[1,0.5]];portConstraint=eastwest;" parent="Q5zvqMtaJudgByWmIzp0-9" vertex="1">
          <mxGeometry y="293.8181818181818" width="176" height="26" as="geometry" />
        </mxCell>
        <mxCell id="iOH6iioEirqTic2LtI99-34" value="+deleteErgonomy()" style="text;strokeColor=none;fillColor=none;align=left;verticalAlign=top;spacingLeft=4;spacingRight=4;overflow=hidden;rotatable=0;points=[[0,0.5],[1,0.5]];portConstraint=eastwest;" parent="Q5zvqMtaJudgByWmIzp0-9" vertex="1">
          <mxGeometry y="319.8181818181818" width="176" height="26" as="geometry" />
        </mxCell>
        <mxCell id="Q5zvqMtaJudgByWmIzp0-14" value="+addEquipment()" style="text;strokeColor=none;fillColor=none;align=left;verticalAlign=top;spacingLeft=4;spacingRight=4;overflow=hidden;rotatable=0;points=[[0,0.5],[1,0.5]];portConstraint=eastwest;" parent="Q5zvqMtaJudgByWmIzp0-9" vertex="1">
          <mxGeometry y="345.8181818181818" width="176" height="26" as="geometry" />
        </mxCell>
        <mxCell id="iOH6iioEirqTic2LtI99-39" value="+editEquipment()" style="text;strokeColor=none;fillColor=none;align=left;verticalAlign=top;spacingLeft=4;spacingRight=4;overflow=hidden;rotatable=0;points=[[0,0.5],[1,0.5]];portConstraint=eastwest;" parent="Q5zvqMtaJudgByWmIzp0-9" vertex="1">
          <mxGeometry y="371.8181818181818" width="176" height="26" as="geometry" />
        </mxCell>
        <mxCell id="iOH6iioEirqTic2LtI99-38" value="+deleteEquipment()" style="text;strokeColor=none;fillColor=none;align=left;verticalAlign=top;spacingLeft=4;spacingRight=4;overflow=hidden;rotatable=0;points=[[0,0.5],[1,0.5]];portConstraint=eastwest;" parent="Q5zvqMtaJudgByWmIzp0-9" vertex="1">
          <mxGeometry y="397.8181818181818" width="176" height="26" as="geometry" />
        </mxCell>
        <mxCell id="Q5zvqMtaJudgByWmIzp0-15" value="Hall" style="swimlane;fontStyle=1;align=center;verticalAlign=top;childLayout=stackLayout;horizontal=1;startSize=26.857142857142858;horizontalStack=0;resizeParent=1;resizeParentMax=0;resizeLast=0;collapsible=0;marginBottom=0;" parent="1" vertex="1">
          <mxGeometry x="450" y="20" width="183" height="250.85714285714286" as="geometry" />
        </mxCell>
        <mxCell id="Q5zvqMtaJudgByWmIzp0-16" value="-id: int" style="text;strokeColor=none;fillColor=none;align=left;verticalAlign=top;spacingLeft=4;spacingRight=4;overflow=hidden;rotatable=0;points=[[0,0.5],[1,0.5]];portConstraint=eastwest;" parent="Q5zvqMtaJudgByWmIzp0-15" vertex="1">
          <mxGeometry y="26.857142857142858" width="183" height="27" as="geometry" />
        </mxCell>
        <mxCell id="Q5zvqMtaJudgByWmIzp0-17" value="-name: string" style="text;strokeColor=none;fillColor=none;align=left;verticalAlign=top;spacingLeft=4;spacingRight=4;overflow=hidden;rotatable=0;points=[[0,0.5],[1,0.5]];portConstraint=eastwest;" parent="Q5zvqMtaJudgByWmIzp0-15" vertex="1">
          <mxGeometry y="53.85714285714286" width="183" height="27" as="geometry" />
        </mxCell>
        <mxCell id="iOH6iioEirqTic2LtI99-1" value="-location: string" style="text;strokeColor=none;fillColor=none;align=left;verticalAlign=top;spacingLeft=4;spacingRight=4;overflow=hidden;rotatable=0;points=[[0,0.5],[1,0.5]];portConstraint=eastwest;" parent="Q5zvqMtaJudgByWmIzp0-15" vertex="1">
          <mxGeometry y="80.85714285714286" width="183" height="27" as="geometry" />
        </mxCell>
        <mxCell id="Q5zvqMtaJudgByWmIzp0-18" value="-capacity : int" style="text;strokeColor=none;fillColor=none;align=left;verticalAlign=top;spacingLeft=4;spacingRight=4;overflow=hidden;rotatable=0;points=[[0,0.5],[1,0.5]];portConstraint=eastwest;" parent="Q5zvqMtaJudgByWmIzp0-15" vertex="1">
          <mxGeometry y="107.85714285714286" width="183" height="27" as="geometry" />
        </mxCell>
        <mxCell id="Q5zvqMtaJudgByWmIzp0-19" value="+List equipment" style="text;strokeColor=none;fillColor=none;align=left;verticalAlign=top;spacingLeft=4;spacingRight=4;overflow=hidden;rotatable=0;points=[[0,0.5],[1,0.5]];portConstraint=eastwest;" parent="Q5zvqMtaJudgByWmIzp0-15" vertex="1">
          <mxGeometry y="134.85714285714286" width="183" height="27" as="geometry" />
        </mxCell>
        <mxCell id="Q5zvqMtaJudgByWmIzp0-20" value="+List ergonomicCriteria" style="text;strokeColor=none;fillColor=none;align=left;verticalAlign=top;spacingLeft=4;spacingRight=4;overflow=hidden;rotatable=0;points=[[0,0.5],[1,0.5]];portConstraint=eastwest;" parent="Q5zvqMtaJudgByWmIzp0-15" vertex="1">
          <mxGeometry y="161.85714285714286" width="183" height="27" as="geometry" />
        </mxCell>
        <mxCell id="Q5zvqMtaJudgByWmIzp0-21" style="line;strokeWidth=1;fillColor=none;align=left;verticalAlign=middle;spacingTop=-1;spacingLeft=3;spacingRight=3;rotatable=0;labelPosition=right;points=[];portConstraint=eastwest;strokeColor=inherit;" parent="Q5zvqMtaJudgByWmIzp0-15" vertex="1">
          <mxGeometry y="188.85714285714286" width="183" height="8" as="geometry" />
        </mxCell>
        <mxCell id="iOH6iioEirqTic2LtI99-45" value="+checkAvailability()" style="text;strokeColor=none;fillColor=none;align=left;verticalAlign=top;spacingLeft=4;spacingRight=4;overflow=hidden;rotatable=0;points=[[0,0.5],[1,0.5]];portConstraint=eastwest;" parent="Q5zvqMtaJudgByWmIzp0-15" vertex="1">
          <mxGeometry y="196.85714285714286" width="183" height="27" as="geometry" />
        </mxCell>
        <mxCell id="Q5zvqMtaJudgByWmIzp0-22" value="+searchHall()" style="text;strokeColor=none;fillColor=none;align=left;verticalAlign=top;spacingLeft=4;spacingRight=4;overflow=hidden;rotatable=0;points=[[0,0.5],[1,0.5]];portConstraint=eastwest;" parent="Q5zvqMtaJudgByWmIzp0-15" vertex="1">
          <mxGeometry y="223.85714285714286" width="183" height="27" as="geometry" />
        </mxCell>
        <mxCell id="Q5zvqMtaJudgByWmIzp0-23" value="Reservation" style="swimlane;fontStyle=1;align=center;verticalAlign=top;childLayout=stackLayout;horizontal=1;startSize=26;horizontalStack=0;resizeParent=1;resizeParentMax=0;resizeLast=0;collapsible=0;marginBottom=0;" parent="1" vertex="1">
          <mxGeometry x="310" y="350" width="170" height="294" as="geometry" />
        </mxCell>
        <mxCell id="Q5zvqMtaJudgByWmIzp0-24" value="-id: int " style="text;strokeColor=none;fillColor=none;align=left;verticalAlign=top;spacingLeft=4;spacingRight=4;overflow=hidden;rotatable=0;points=[[0,0.5],[1,0.5]];portConstraint=eastwest;" parent="Q5zvqMtaJudgByWmIzp0-23" vertex="1">
          <mxGeometry y="26" width="170" height="26" as="geometry" />
        </mxCell>
        <mxCell id="Q5zvqMtaJudgByWmIzp0-25" value="-startDate : Date" style="text;strokeColor=none;fillColor=none;align=left;verticalAlign=top;spacingLeft=4;spacingRight=4;overflow=hidden;rotatable=0;points=[[0,0.5],[1,0.5]];portConstraint=eastwest;" parent="Q5zvqMtaJudgByWmIzp0-23" vertex="1">
          <mxGeometry y="52" width="170" height="26" as="geometry" />
        </mxCell>
        <mxCell id="Q5zvqMtaJudgByWmIzp0-26" value="-endDate: Date" style="text;strokeColor=none;fillColor=none;align=left;verticalAlign=top;spacingLeft=4;spacingRight=4;overflow=hidden;rotatable=0;points=[[0,0.5],[1,0.5]];portConstraint=eastwest;" parent="Q5zvqMtaJudgByWmIzp0-23" vertex="1">
          <mxGeometry y="78" width="170" height="26" as="geometry" />
        </mxCell>
        <mxCell id="iOH6iioEirqTic2LtI99-2" value="-startTime: Time" style="text;strokeColor=none;fillColor=none;align=left;verticalAlign=top;spacingLeft=4;spacingRight=4;overflow=hidden;rotatable=0;points=[[0,0.5],[1,0.5]];portConstraint=eastwest;" parent="Q5zvqMtaJudgByWmIzp0-23" vertex="1">
          <mxGeometry y="104" width="170" height="26" as="geometry" />
        </mxCell>
        <mxCell id="iOH6iioEirqTic2LtI99-3" value="-endTime: Time" style="text;strokeColor=none;fillColor=none;align=left;verticalAlign=top;spacingLeft=4;spacingRight=4;overflow=hidden;rotatable=0;points=[[0,0.5],[1,0.5]];portConstraint=eastwest;" parent="Q5zvqMtaJudgByWmIzp0-23" vertex="1">
          <mxGeometry y="130" width="170" height="26" as="geometry" />
        </mxCell>
        <mxCell id="Q5zvqMtaJudgByWmIzp0-27" value="+boolean isConfirmed" style="text;strokeColor=none;fillColor=none;align=left;verticalAlign=top;spacingLeft=4;spacingRight=4;overflow=hidden;rotatable=0;points=[[0,0.5],[1,0.5]];portConstraint=eastwest;" parent="Q5zvqMtaJudgByWmIzp0-23" vertex="1">
          <mxGeometry y="156" width="170" height="26" as="geometry" />
        </mxCell>
        <mxCell id="Q5zvqMtaJudgByWmIzp0-28" value="-user: Uesr" style="text;strokeColor=none;fillColor=none;align=left;verticalAlign=top;spacingLeft=4;spacingRight=4;overflow=hidden;rotatable=0;points=[[0,0.5],[1,0.5]];portConstraint=eastwest;" parent="Q5zvqMtaJudgByWmIzp0-23" vertex="1">
          <mxGeometry y="182" width="170" height="26" as="geometry" />
        </mxCell>
        <mxCell id="Q5zvqMtaJudgByWmIzp0-29" value="-room: Room" style="text;strokeColor=none;fillColor=none;align=left;verticalAlign=top;spacingLeft=4;spacingRight=4;overflow=hidden;rotatable=0;points=[[0,0.5],[1,0.5]];portConstraint=eastwest;" parent="Q5zvqMtaJudgByWmIzp0-23" vertex="1">
          <mxGeometry y="208" width="170" height="26" as="geometry" />
        </mxCell>
        <mxCell id="Q5zvqMtaJudgByWmIzp0-30" style="line;strokeWidth=1;fillColor=none;align=left;verticalAlign=middle;spacingTop=-1;spacingLeft=3;spacingRight=3;rotatable=0;labelPosition=right;points=[];portConstraint=eastwest;strokeColor=inherit;" parent="Q5zvqMtaJudgByWmIzp0-23" vertex="1">
          <mxGeometry y="234" width="170" height="8" as="geometry" />
        </mxCell>
        <mxCell id="Q5zvqMtaJudgByWmIzp0-31" value="+modifyReservation()" style="text;strokeColor=none;fillColor=none;align=left;verticalAlign=top;spacingLeft=4;spacingRight=4;overflow=hidden;rotatable=0;points=[[0,0.5],[1,0.5]];portConstraint=eastwest;" parent="Q5zvqMtaJudgByWmIzp0-23" vertex="1">
          <mxGeometry y="242" width="170" height="26" as="geometry" />
        </mxCell>
        <mxCell id="Q5zvqMtaJudgByWmIzp0-32" value="+cancelReservation()" style="text;strokeColor=none;fillColor=none;align=left;verticalAlign=top;spacingLeft=4;spacingRight=4;overflow=hidden;rotatable=0;points=[[0,0.5],[1,0.5]];portConstraint=eastwest;" parent="Q5zvqMtaJudgByWmIzp0-23" vertex="1">
          <mxGeometry y="268" width="170" height="26" as="geometry" />
        </mxCell>
        <mxCell id="Q5zvqMtaJudgByWmIzp0-33" value="HallEquipement" style="swimlane;fontStyle=1;align=center;verticalAlign=top;childLayout=stackLayout;horizontal=1;startSize=25.818181818181817;horizontalStack=0;resizeParent=1;resizeParentMax=0;resizeLast=0;collapsible=0;marginBottom=0;" parent="1" vertex="1">
          <mxGeometry x="578.5" y="470" width="149" height="90.81818181818181" as="geometry" />
        </mxCell>
        <mxCell id="Q5zvqMtaJudgByWmIzp0-34" value="-hall: Hall" style="text;strokeColor=none;fillColor=none;align=left;verticalAlign=top;spacingLeft=4;spacingRight=4;overflow=hidden;rotatable=0;points=[[0,0.5],[1,0.5]];portConstraint=eastwest;" parent="Q5zvqMtaJudgByWmIzp0-33" vertex="1">
          <mxGeometry y="25.818181818181817" width="149" height="26" as="geometry" />
        </mxCell>
        <mxCell id="Q5zvqMtaJudgByWmIzp0-35" value="-equipement: Equipment" style="text;strokeColor=none;fillColor=none;align=left;verticalAlign=top;spacingLeft=4;spacingRight=4;overflow=hidden;rotatable=0;points=[[0,0.5],[1,0.5]];portConstraint=eastwest;" parent="Q5zvqMtaJudgByWmIzp0-33" vertex="1">
          <mxGeometry y="51.81818181818181" width="149" height="26" as="geometry" />
        </mxCell>
        <mxCell id="Q5zvqMtaJudgByWmIzp0-38" style="line;strokeWidth=1;fillColor=none;align=left;verticalAlign=middle;spacingTop=-1;spacingLeft=3;spacingRight=3;rotatable=0;labelPosition=right;points=[];portConstraint=eastwest;strokeColor=inherit;" parent="Q5zvqMtaJudgByWmIzp0-33" vertex="1">
          <mxGeometry y="77.81818181818181" width="149" height="13" as="geometry" />
        </mxCell>
        <mxCell id="Q5zvqMtaJudgByWmIzp0-39" value="Ergonomy" style="swimlane;fontStyle=1;align=center;verticalAlign=top;childLayout=stackLayout;horizontal=1;startSize=26.444444444444443;horizontalStack=0;resizeParent=1;resizeParentMax=0;resizeLast=0;collapsible=0;marginBottom=0;" parent="1" vertex="1">
          <mxGeometry x="1016" y="99.41" width="150" height="117.44444444444444" as="geometry" />
        </mxCell>
        <mxCell id="Q5zvqMtaJudgByWmIzp0-40" value="-id: int" style="text;strokeColor=none;fillColor=none;align=left;verticalAlign=top;spacingLeft=4;spacingRight=4;overflow=hidden;rotatable=0;points=[[0,0.5],[1,0.5]];portConstraint=eastwest;" parent="Q5zvqMtaJudgByWmIzp0-39" vertex="1">
          <mxGeometry y="26.444444444444443" width="150" height="26" as="geometry" />
        </mxCell>
        <mxCell id="Q5zvqMtaJudgByWmIzp0-41" value="-name: string" style="text;strokeColor=none;fillColor=none;align=left;verticalAlign=top;spacingLeft=4;spacingRight=4;overflow=hidden;rotatable=0;points=[[0,0.5],[1,0.5]];portConstraint=eastwest;" parent="Q5zvqMtaJudgByWmIzp0-39" vertex="1">
          <mxGeometry y="52.44444444444444" width="150" height="26" as="geometry" />
        </mxCell>
        <mxCell id="Q5zvqMtaJudgByWmIzp0-42" value="-description: string" style="text;strokeColor=none;fillColor=none;align=left;verticalAlign=top;spacingLeft=4;spacingRight=4;overflow=hidden;rotatable=0;points=[[0,0.5],[1,0.5]];portConstraint=eastwest;" parent="Q5zvqMtaJudgByWmIzp0-39" vertex="1">
          <mxGeometry y="78.44444444444444" width="150" height="26" as="geometry" />
        </mxCell>
        <mxCell id="Q5zvqMtaJudgByWmIzp0-43" style="line;strokeWidth=1;fillColor=none;align=left;verticalAlign=middle;spacingTop=-1;spacingLeft=3;spacingRight=3;rotatable=0;labelPosition=right;points=[];portConstraint=eastwest;strokeColor=inherit;" parent="Q5zvqMtaJudgByWmIzp0-39" vertex="1">
          <mxGeometry y="104.44444444444444" width="150" height="13" as="geometry" />
        </mxCell>
        <mxCell id="Q5zvqMtaJudgByWmIzp0-51" value="" style="curved=1;startArrow=none;endArrow=none;exitX=0.5;exitY=1;entryX=0.5;entryY=0;rounded=0;" parent="1" source="Q5zvqMtaJudgByWmIzp0-15" target="Q5zvqMtaJudgByWmIzp0-33" edge="1">
          <mxGeometry relative="1" as="geometry">
            <Array as="points" />
          </mxGeometry>
        </mxCell>
        <mxCell id="Q5zvqMtaJudgByWmIzp0-52" value="1..*" style="edgeLabel;resizable=0;labelBackgroundColor=none;fontSize=12;align=right;verticalAlign=top;" parent="Q5zvqMtaJudgByWmIzp0-51" vertex="1">
          <mxGeometry x="-1" relative="1" as="geometry" />
        </mxCell>
        <mxCell id="Q5zvqMtaJudgByWmIzp0-53" value="1" style="edgeLabel;resizable=0;labelBackgroundColor=none;fontSize=12;align=left;verticalAlign=bottom;" parent="Q5zvqMtaJudgByWmIzp0-51" vertex="1">
          <mxGeometry x="1" relative="1" as="geometry" />
        </mxCell>
        <mxCell id="iOH6iioEirqTic2LtI99-7" value="HallErgonomy" style="swimlane;fontStyle=1;align=center;verticalAlign=top;childLayout=stackLayout;horizontal=1;startSize=26.444444444444443;horizontalStack=0;resizeParent=1;resizeParentMax=0;resizeLast=0;collapsible=0;marginBottom=0;" parent="1" vertex="1">
          <mxGeometry x="760" y="90" width="150" height="117.44444444444444" as="geometry" />
        </mxCell>
        <mxCell id="iOH6iioEirqTic2LtI99-15" value="-ergonomy: Ergonomy" style="text;strokeColor=none;fillColor=none;align=left;verticalAlign=top;spacingLeft=4;spacingRight=4;overflow=hidden;rotatable=0;points=[[0,0.5],[1,0.5]];portConstraint=eastwest;" parent="iOH6iioEirqTic2LtI99-7" vertex="1">
          <mxGeometry y="26.444444444444443" width="150" height="26" as="geometry" />
        </mxCell>
        <mxCell id="iOH6iioEirqTic2LtI99-8" value="-ergonomy: Ergonomy" style="text;strokeColor=none;fillColor=none;align=left;verticalAlign=top;spacingLeft=4;spacingRight=4;overflow=hidden;rotatable=0;points=[[0,0.5],[1,0.5]];portConstraint=eastwest;" parent="iOH6iioEirqTic2LtI99-7" vertex="1">
          <mxGeometry y="52.44444444444444" width="150" height="26" as="geometry" />
        </mxCell>
        <mxCell id="iOH6iioEirqTic2LtI99-9" value="-hall: Hall" style="text;strokeColor=none;fillColor=none;align=left;verticalAlign=top;spacingLeft=4;spacingRight=4;overflow=hidden;rotatable=0;points=[[0,0.5],[1,0.5]];portConstraint=eastwest;" parent="iOH6iioEirqTic2LtI99-7" vertex="1">
          <mxGeometry y="78.44444444444444" width="150" height="26" as="geometry" />
        </mxCell>
        <mxCell id="iOH6iioEirqTic2LtI99-11" style="line;strokeWidth=1;fillColor=none;align=left;verticalAlign=middle;spacingTop=-1;spacingLeft=3;spacingRight=3;rotatable=0;labelPosition=right;points=[];portConstraint=eastwest;strokeColor=inherit;" parent="iOH6iioEirqTic2LtI99-7" vertex="1">
          <mxGeometry y="104.44444444444444" width="150" height="13" as="geometry" />
        </mxCell>
        <mxCell id="iOH6iioEirqTic2LtI99-12" style="edgeStyle=orthogonalEdgeStyle;rounded=0;orthogonalLoop=1;jettySize=auto;html=1;entryX=0.04;entryY=0.137;entryDx=0;entryDy=0;entryPerimeter=0;" parent="1" source="Q5zvqMtaJudgByWmIzp0-16" target="iOH6iioEirqTic2LtI99-9" edge="1">
          <mxGeometry relative="1" as="geometry" />
        </mxCell>
        <mxCell id="iOH6iioEirqTic2LtI99-13" style="edgeStyle=orthogonalEdgeStyle;rounded=0;orthogonalLoop=1;jettySize=auto;html=1;entryX=1.021;entryY=0.044;entryDx=0;entryDy=0;entryPerimeter=0;" parent="1" source="Q5zvqMtaJudgByWmIzp0-41" target="iOH6iioEirqTic2LtI99-9" edge="1">
          <mxGeometry relative="1" as="geometry">
            <Array as="points">
              <mxPoint x="913" y="165" />
            </Array>
          </mxGeometry>
        </mxCell>
        <mxCell id="iOH6iioEirqTic2LtI99-14" value="1..*" style="text;html=1;align=center;verticalAlign=middle;resizable=0;points=[];autosize=1;strokeColor=none;fillColor=none;" parent="1" vertex="1">
          <mxGeometry x="633" y="28" width="40" height="30" as="geometry" />
        </mxCell>
        <mxCell id="iOH6iioEirqTic2LtI99-16" value="1" style="text;html=1;align=center;verticalAlign=middle;resizable=0;points=[];autosize=1;strokeColor=none;fillColor=none;" parent="1" vertex="1">
          <mxGeometry x="730" y="143.13" width="30" height="30" as="geometry" />
        </mxCell>
        <mxCell id="iOH6iioEirqTic2LtI99-17" value="1" style="text;html=1;align=center;verticalAlign=middle;resizable=0;points=[];autosize=1;strokeColor=none;fillColor=none;" parent="1" vertex="1">
          <mxGeometry x="910" y="143.13" width="30" height="30" as="geometry" />
        </mxCell>
        <mxCell id="iOH6iioEirqTic2LtI99-18" value="1..*" style="text;html=1;align=center;verticalAlign=middle;resizable=0;points=[];autosize=1;strokeColor=none;fillColor=none;" parent="1" vertex="1">
          <mxGeometry x="980" y="138" width="40" height="30" as="geometry" />
        </mxCell>
        <mxCell id="iOH6iioEirqTic2LtI99-19" value="Equipment" style="swimlane;fontStyle=1;align=center;verticalAlign=top;childLayout=stackLayout;horizontal=1;startSize=25.818181818181817;horizontalStack=0;resizeParent=1;resizeParentMax=0;resizeLast=0;collapsible=0;marginBottom=0;" parent="1" vertex="1">
          <mxGeometry x="925.5" y="460" width="149" height="142.8181818181818" as="geometry" />
        </mxCell>
        <mxCell id="iOH6iioEirqTic2LtI99-20" value="-id: int" style="text;strokeColor=none;fillColor=none;align=left;verticalAlign=top;spacingLeft=4;spacingRight=4;overflow=hidden;rotatable=0;points=[[0,0.5],[1,0.5]];portConstraint=eastwest;" parent="iOH6iioEirqTic2LtI99-19" vertex="1">
          <mxGeometry y="25.818181818181817" width="149" height="26" as="geometry" />
        </mxCell>
        <mxCell id="iOH6iioEirqTic2LtI99-21" value="-name: string" style="text;strokeColor=none;fillColor=none;align=left;verticalAlign=top;spacingLeft=4;spacingRight=4;overflow=hidden;rotatable=0;points=[[0,0.5],[1,0.5]];portConstraint=eastwest;" parent="iOH6iioEirqTic2LtI99-19" vertex="1">
          <mxGeometry y="51.81818181818181" width="149" height="26" as="geometry" />
        </mxCell>
        <mxCell id="iOH6iioEirqTic2LtI99-22" value="-type: string" style="text;strokeColor=none;fillColor=none;align=left;verticalAlign=top;spacingLeft=4;spacingRight=4;overflow=hidden;rotatable=0;points=[[0,0.5],[1,0.5]];portConstraint=eastwest;" parent="iOH6iioEirqTic2LtI99-19" vertex="1">
          <mxGeometry y="77.81818181818181" width="149" height="26" as="geometry" />
        </mxCell>
        <mxCell id="iOH6iioEirqTic2LtI99-23" value="-description: string" style="text;strokeColor=none;fillColor=none;align=left;verticalAlign=top;spacingLeft=4;spacingRight=4;overflow=hidden;rotatable=0;points=[[0,0.5],[1,0.5]];portConstraint=eastwest;" parent="iOH6iioEirqTic2LtI99-19" vertex="1">
          <mxGeometry y="103.81818181818181" width="149" height="26" as="geometry" />
        </mxCell>
        <mxCell id="iOH6iioEirqTic2LtI99-24" style="line;strokeWidth=1;fillColor=none;align=left;verticalAlign=middle;spacingTop=-1;spacingLeft=3;spacingRight=3;rotatable=0;labelPosition=right;points=[];portConstraint=eastwest;strokeColor=inherit;" parent="iOH6iioEirqTic2LtI99-19" vertex="1">
          <mxGeometry y="129.8181818181818" width="149" height="13" as="geometry" />
        </mxCell>
        <mxCell id="iOH6iioEirqTic2LtI99-26" style="edgeStyle=orthogonalEdgeStyle;rounded=0;orthogonalLoop=1;jettySize=auto;html=1;entryX=0.991;entryY=0.161;entryDx=0;entryDy=0;entryPerimeter=0;" parent="1" source="iOH6iioEirqTic2LtI99-20" target="Q5zvqMtaJudgByWmIzp0-34" edge="1">
          <mxGeometry relative="1" as="geometry" />
        </mxCell>
        <mxCell id="iOH6iioEirqTic2LtI99-27" value="1" style="text;html=1;align=center;verticalAlign=middle;resizable=0;points=[];autosize=1;strokeColor=none;fillColor=none;" parent="1" vertex="1">
          <mxGeometry x="730" y="470" width="30" height="30" as="geometry" />
        </mxCell>
        <mxCell id="iOH6iioEirqTic2LtI99-28" value="1..*" style="text;html=1;align=center;verticalAlign=middle;resizable=0;points=[];autosize=1;strokeColor=none;fillColor=none;" parent="1" vertex="1">
          <mxGeometry x="885.5" y="460" width="40" height="30" as="geometry" />
        </mxCell>
        <mxCell id="iOH6iioEirqTic2LtI99-46" style="edgeStyle=orthogonalEdgeStyle;rounded=0;orthogonalLoop=1;jettySize=auto;html=1;entryX=0.5;entryY=0;entryDx=0;entryDy=0;" parent="1" source="Q5zvqMtaJudgByWmIzp0-16" target="Q5zvqMtaJudgByWmIzp0-23" edge="1">
          <mxGeometry relative="1" as="geometry" />
        </mxCell>
        <mxCell id="iOH6iioEirqTic2LtI99-47" value="1" style="text;html=1;align=center;verticalAlign=middle;resizable=0;points=[];autosize=1;strokeColor=none;fillColor=none;" parent="1" vertex="1">
          <mxGeometry x="415" y="28" width="30" height="30" as="geometry" />
        </mxCell>
        <mxCell id="iOH6iioEirqTic2LtI99-48" value="1..*" style="text;html=1;align=center;verticalAlign=middle;resizable=0;points=[];autosize=1;strokeColor=none;fillColor=none;" parent="1" vertex="1">
          <mxGeometry x="394" y="318" width="40" height="30" as="geometry" />
        </mxCell>
        <mxCell id="iOH6iioEirqTic2LtI99-49" style="edgeStyle=orthogonalEdgeStyle;rounded=0;orthogonalLoop=1;jettySize=auto;html=1;entryX=0.25;entryY=0;entryDx=0;entryDy=0;" parent="1" source="Q5zvqMtaJudgByWmIzp0-2" target="Q5zvqMtaJudgByWmIzp0-23" edge="1">
          <mxGeometry relative="1" as="geometry" />
        </mxCell>
        <mxCell id="iOH6iioEirqTic2LtI99-50" value="1" style="text;html=1;align=center;verticalAlign=middle;resizable=0;points=[];autosize=1;strokeColor=none;fillColor=none;" parent="1" vertex="1">
          <mxGeometry x="215" y="28" width="30" height="30" as="geometry" />
        </mxCell>
        <mxCell id="iOH6iioEirqTic2LtI99-51" value="1..*" style="text;html=1;align=center;verticalAlign=middle;resizable=0;points=[];autosize=1;strokeColor=none;fillColor=none;" parent="1" vertex="1">
          <mxGeometry x="310" y="318" width="40" height="30" as="geometry" />
        </mxCell>
      </root>
    </mxGraphModel>
  </diagram>
</mxfile>
